<svg width="23" height="23" viewBox="0 0 23 23" fill="none" xmlns="http://www.w3.org/2000/svg">
    <path d="M4.60178 16.515C4.39733 17.2841 4.50608 18.1029 4.9042 18.792C5.30232 19.4812 5.95734 19.9844 6.72578 20.1915L14.9158 22.3965C15.296 22.4989 15.6926 22.5254 16.0831 22.4742C16.4735 22.4231 16.85 22.2954 17.1909 22.0985C17.5319 21.9016 17.8307 21.6394 18.0701 21.3268C18.3096 21.0142 18.485 20.6575 18.5863 20.277L22.3963 5.99246C22.6012 5.22332 22.4929 4.40429 22.0951 3.71487C21.6972 3.02544 21.0423 2.52186 20.2738 2.31446L12.0838 0.109465C11.7036 0.00699985 11.3069 -0.0194285 10.9165 0.0316948C10.5261 0.082818 10.1496 0.210488 9.80862 0.407386C9.46763 0.604284 9.16886 0.866541 8.92942 1.17912C8.68998 1.49171 8.51458 1.84847 8.41328 2.22896L4.60178 16.515Z" fill="white"/>
    <path d="M4.49978 3.00146V11.0745L7.15778 1.11446C7.26578 0.706465 7.43678 0.332965 7.65878 0.00146484H7.49978C6.70413 0.00146484 5.94107 0.317536 5.37846 0.880145C4.81585 1.44275 4.49978 2.20582 4.49978 3.00146Z" fill="white"/>
    <path d="M1.00478 5.25896L2.99978 12.7035V3.00296C2.99978 2.49596 3.08378 2.00846 3.23828 1.55396L3.12578 1.58396C2.74518 1.68596 2.38841 1.86193 2.07583 2.10183C1.76325 2.34173 1.50099 2.64085 1.30403 2.98212C1.10707 3.32338 0.979272 3.70011 0.927925 4.09077C0.876578 4.48144 0.902694 4.87839 1.00478 5.25896Z" fill="white"/>
</svg>
