<svg width="22" height="22" viewBox="0 0 22 22" fill="none" xmlns="http://www.w3.org/2000/svg">
    <path d="M1.77225e-05 11C1.77225e-05 4.92488 4.92489 0 11 0C17.0752 0 22 4.92488 22 11C22 17.0751 17.0752 22 11 22C9.08012 22 7.27249 21.5072 5.69963 20.6408L1.42029 21.9432C1.03166 22.0616 0.609462 21.956 0.322208 21.6687C0.0349539 21.3816 -0.0706001 20.9592 0.0476917 20.5707L1.35154 16.2865C0.489892 14.7169 1.77225e-05 12.9143 1.77225e-05 11ZM6.6 9.9C6.6 10.5075 7.09249 11 7.7 11H14.3C14.9075 11 15.4 10.5075 15.4 9.9C15.4 9.29249 14.9075 8.8 14.3 8.8H7.7C7.09249 8.8 6.6 9.29249 6.6 9.9ZM7.7 13.2C7.09249 13.2 6.6 13.6925 6.6 14.3C6.6 14.9075 7.09249 15.4 7.7 15.4H12.1C12.7075 15.4 13.2 14.9075 13.2 14.3C13.2 13.6925 12.7075 13.2 12.1 13.2H7.7Z" fill="white"/>
</svg>
