<svg width="390" height="223" viewBox="0 0 390 223" fill="none" xmlns="http://www.w3.org/2000/svg">
    <path opacity="0.6" d="M-5 127.373C-5 151.604 1.26718 174.14 17.2921 192.755C27.1534 204.209 41.56 210.766 55.1492 216.717C65.1504 221.098 81.9173 224.213 91.3794 216.805C101.063 209.224 106.391 193.417 109.714 181.982C114.686 164.874 114.73 145.939 112.396 128.384C108.793 101.27 93.8732 76.0472 95.5124 48.0536C96.5425 30.4631 103.5 14.9999 125.631 5.71173C139.5 -0.108917 158 1.18644 164.323 1.93043C197.488 5.83219 211.986 30.7655 222.758 59.3096C227.551 72.0115 231.859 84.6774 235.992 97.6063C240.336 111.193 243.483 125.69 253.844 136.167C268.003 150.486 291.464 161.627 311.223 164.659C343.727 169.646 380.039 148.381 403 126.5C421.661 108.717 432.012 88.0599 446.207 66.5204C478.282 17.8488 446.609 63.5593 466.696 29.235" stroke="#FF8CB3" stroke-width="2.5" stroke-linecap="round" stroke-linejoin="round" stroke-dasharray="10 10"/>
</svg>
